<mxfile host="app.diagrams.net" agent="Mozilla/5.0 (Macintosh; Intel Mac OS X 10_15_7) AppleWebKit/605.1.15 (KHTML, like Gecko) Version/18.3 Safari/605.1.15" version="26.0.11">
  <diagram name="Page-1" id="_fys5b6AIQsB8el1a2Oc">
    <mxGraphModel dx="1949" dy="1901" grid="1" gridSize="5" guides="1" tooltips="1" connect="1" arrows="1" fold="1" page="1" pageScale="1" pageWidth="827" pageHeight="1169" math="0" shadow="0">
      <root>
        <mxCell id="0" />
        <mxCell id="1" parent="0" />
        <mxCell id="tazJA-1fFO51e1FRlMbC-10" style="edgeStyle=orthogonalEdgeStyle;rounded=0;orthogonalLoop=1;jettySize=auto;html=1;exitX=0;exitY=0.5;exitDx=0;exitDy=0;startArrow=classic;startFill=1;endArrow=none;" parent="1" source="tazJA-1fFO51e1FRlMbC-1" edge="1">
          <mxGeometry relative="1" as="geometry">
            <mxPoint x="306" y="175" as="targetPoint" />
          </mxGeometry>
        </mxCell>
        <mxCell id="tazJA-1fFO51e1FRlMbC-13" style="edgeStyle=orthogonalEdgeStyle;rounded=0;orthogonalLoop=1;jettySize=auto;html=1;exitX=0;exitY=1;exitDx=0;exitDy=0;entryX=1;entryY=0;entryDx=0;entryDy=0;curved=1;" parent="1" source="tazJA-1fFO51e1FRlMbC-1" target="tazJA-1fFO51e1FRlMbC-3" edge="1">
          <mxGeometry relative="1" as="geometry" />
        </mxCell>
        <mxCell id="tazJA-1fFO51e1FRlMbC-15" style="edgeStyle=orthogonalEdgeStyle;rounded=0;orthogonalLoop=1;jettySize=auto;html=1;exitX=0.5;exitY=1;exitDx=0;exitDy=0;curved=1;entryX=0.5;entryY=0;entryDx=0;entryDy=0;" parent="1" source="tazJA-1fFO51e1FRlMbC-1" target="tazJA-1fFO51e1FRlMbC-4" edge="1">
          <mxGeometry relative="1" as="geometry">
            <Array as="points">
              <mxPoint x="390" y="220" />
              <mxPoint x="390" y="350" />
            </Array>
          </mxGeometry>
        </mxCell>
        <mxCell id="tazJA-1fFO51e1FRlMbC-27" style="edgeStyle=orthogonalEdgeStyle;rounded=0;orthogonalLoop=1;jettySize=auto;html=1;exitX=1;exitY=1;exitDx=0;exitDy=0;entryX=0;entryY=0;entryDx=0;entryDy=0;curved=1;" parent="1" source="tazJA-1fFO51e1FRlMbC-1" target="tazJA-1fFO51e1FRlMbC-5" edge="1">
          <mxGeometry relative="1" as="geometry">
            <Array as="points">
              <mxPoint x="437" y="363" />
            </Array>
          </mxGeometry>
        </mxCell>
        <mxCell id="tazJA-1fFO51e1FRlMbC-99" style="edgeStyle=orthogonalEdgeStyle;rounded=0;orthogonalLoop=1;jettySize=auto;html=1;exitX=0.969;exitY=0.348;exitDx=0;exitDy=0;entryX=0.5;entryY=0;entryDx=0;entryDy=0;curved=1;exitPerimeter=0;" parent="1" source="tazJA-1fFO51e1FRlMbC-1" target="tazJA-1fFO51e1FRlMbC-83" edge="1">
          <mxGeometry relative="1" as="geometry">
            <Array as="points">
              <mxPoint x="447" y="163" />
              <mxPoint x="835" y="163" />
            </Array>
          </mxGeometry>
        </mxCell>
        <mxCell id="tazJA-1fFO51e1FRlMbC-1" value="MANUAL MODE" style="ellipse;whiteSpace=wrap;html=1;aspect=fixed;" parent="1" vertex="1">
          <mxGeometry x="360" y="130" width="90" height="90" as="geometry" />
        </mxCell>
        <mxCell id="tazJA-1fFO51e1FRlMbC-14" style="edgeStyle=orthogonalEdgeStyle;rounded=0;orthogonalLoop=1;jettySize=auto;html=1;exitX=1;exitY=0;exitDx=0;exitDy=0;entryX=0;entryY=1;entryDx=0;entryDy=0;curved=1;" parent="1" source="tazJA-1fFO51e1FRlMbC-3" target="tazJA-1fFO51e1FRlMbC-1" edge="1">
          <mxGeometry relative="1" as="geometry" />
        </mxCell>
        <mxCell id="tazJA-1fFO51e1FRlMbC-47" style="edgeStyle=orthogonalEdgeStyle;rounded=0;orthogonalLoop=1;jettySize=auto;html=1;exitX=1;exitY=1;exitDx=0;exitDy=0;entryX=0;entryY=0;entryDx=0;entryDy=0;curved=1;" parent="1" source="tazJA-1fFO51e1FRlMbC-3" target="tazJA-1fFO51e1FRlMbC-7" edge="1">
          <mxGeometry relative="1" as="geometry" />
        </mxCell>
        <mxCell id="tazJA-1fFO51e1FRlMbC-48" style="edgeStyle=orthogonalEdgeStyle;rounded=0;orthogonalLoop=1;jettySize=auto;html=1;exitX=0.5;exitY=1;exitDx=0;exitDy=0;entryX=0.5;entryY=0;entryDx=0;entryDy=0;" parent="1" source="tazJA-1fFO51e1FRlMbC-3" target="tazJA-1fFO51e1FRlMbC-6" edge="1">
          <mxGeometry relative="1" as="geometry" />
        </mxCell>
        <mxCell id="tazJA-1fFO51e1FRlMbC-66" style="edgeStyle=orthogonalEdgeStyle;rounded=0;orthogonalLoop=1;jettySize=auto;html=1;exitX=1;exitY=0.5;exitDx=0;exitDy=0;curved=1;entryX=1;entryY=0.5;entryDx=0;entryDy=0;" parent="1" source="tazJA-1fFO51e1FRlMbC-3" target="tazJA-1fFO51e1FRlMbC-3" edge="1">
          <mxGeometry relative="1" as="geometry">
            <mxPoint x="260" y="370" as="targetPoint" />
            <Array as="points">
              <mxPoint x="280" y="395" />
              <mxPoint x="280" y="370" />
              <mxPoint x="260" y="370" />
              <mxPoint x="260" y="395" />
            </Array>
          </mxGeometry>
        </mxCell>
        <mxCell id="tazJA-1fFO51e1FRlMbC-104" style="edgeStyle=orthogonalEdgeStyle;rounded=0;orthogonalLoop=1;jettySize=auto;html=1;exitX=0;exitY=0.5;exitDx=0;exitDy=0;entryX=0.944;entryY=0.256;entryDx=0;entryDy=0;curved=1;entryPerimeter=0;" parent="1" source="tazJA-1fFO51e1FRlMbC-3" target="tazJA-1fFO51e1FRlMbC-83" edge="1">
          <mxGeometry relative="1" as="geometry">
            <Array as="points">
              <mxPoint x="75" y="395" />
              <mxPoint x="75" y="935" />
              <mxPoint x="940" y="935" />
              <mxPoint x="940" y="373" />
            </Array>
          </mxGeometry>
        </mxCell>
        <mxCell id="m08XYHI6pesTjwAB6Csi-34" style="edgeStyle=orthogonalEdgeStyle;rounded=0;orthogonalLoop=1;jettySize=auto;html=1;exitX=0;exitY=0;exitDx=0;exitDy=0;entryX=1;entryY=0;entryDx=0;entryDy=0;curved=1;" edge="1" parent="1" source="tazJA-1fFO51e1FRlMbC-3" target="tazJA-1fFO51e1FRlMbC-84">
          <mxGeometry relative="1" as="geometry">
            <Array as="points">
              <mxPoint x="163" y="345" />
              <mxPoint x="27" y="345" />
            </Array>
          </mxGeometry>
        </mxCell>
        <mxCell id="tazJA-1fFO51e1FRlMbC-3" value="TAP TEMPO MODE PENDING" style="ellipse;whiteSpace=wrap;html=1;aspect=fixed;" parent="1" vertex="1">
          <mxGeometry x="150" y="350" width="90" height="90" as="geometry" />
        </mxCell>
        <mxCell id="tazJA-1fFO51e1FRlMbC-16" style="edgeStyle=orthogonalEdgeStyle;rounded=0;orthogonalLoop=1;jettySize=auto;html=1;exitX=0.5;exitY=0;exitDx=0;exitDy=0;entryX=0.5;entryY=1;entryDx=0;entryDy=0;curved=1;" parent="1" source="tazJA-1fFO51e1FRlMbC-4" target="tazJA-1fFO51e1FRlMbC-1" edge="1">
          <mxGeometry relative="1" as="geometry">
            <Array as="points">
              <mxPoint x="420" y="350" />
              <mxPoint x="420" y="220" />
            </Array>
          </mxGeometry>
        </mxCell>
        <mxCell id="tazJA-1fFO51e1FRlMbC-37" style="edgeStyle=orthogonalEdgeStyle;rounded=0;orthogonalLoop=1;jettySize=auto;html=1;exitX=0;exitY=1;exitDx=0;exitDy=0;entryX=1;entryY=0;entryDx=0;entryDy=0;curved=1;" parent="1" source="tazJA-1fFO51e1FRlMbC-4" target="tazJA-1fFO51e1FRlMbC-6" edge="1">
          <mxGeometry relative="1" as="geometry" />
        </mxCell>
        <mxCell id="tazJA-1fFO51e1FRlMbC-45" style="edgeStyle=orthogonalEdgeStyle;rounded=0;orthogonalLoop=1;jettySize=auto;html=1;exitX=1;exitY=1;exitDx=0;exitDy=0;entryX=0;entryY=0;entryDx=0;entryDy=0;curved=1;" parent="1" source="tazJA-1fFO51e1FRlMbC-4" target="tazJA-1fFO51e1FRlMbC-8" edge="1">
          <mxGeometry relative="1" as="geometry" />
        </mxCell>
        <mxCell id="tazJA-1fFO51e1FRlMbC-49" style="edgeStyle=orthogonalEdgeStyle;rounded=0;orthogonalLoop=1;jettySize=auto;html=1;exitX=0.5;exitY=1;exitDx=0;exitDy=0;" parent="1" source="tazJA-1fFO51e1FRlMbC-4" target="tazJA-1fFO51e1FRlMbC-7" edge="1">
          <mxGeometry relative="1" as="geometry" />
        </mxCell>
        <mxCell id="tazJA-1fFO51e1FRlMbC-94" style="edgeStyle=orthogonalEdgeStyle;rounded=0;orthogonalLoop=1;jettySize=auto;html=1;exitX=1;exitY=0;exitDx=0;exitDy=0;entryX=0.278;entryY=0.018;entryDx=0;entryDy=0;curved=1;entryPerimeter=0;" parent="1" source="tazJA-1fFO51e1FRlMbC-4" target="tazJA-1fFO51e1FRlMbC-83" edge="1">
          <mxGeometry relative="1" as="geometry">
            <Array as="points">
              <mxPoint x="430" y="363" />
              <mxPoint x="430" y="320" />
              <mxPoint x="815" y="320" />
            </Array>
          </mxGeometry>
        </mxCell>
        <mxCell id="tazJA-1fFO51e1FRlMbC-4" value="CLK MODE PENDING" style="ellipse;whiteSpace=wrap;html=1;aspect=fixed;" parent="1" vertex="1">
          <mxGeometry x="360" y="350" width="90" height="90" as="geometry" />
        </mxCell>
        <mxCell id="tazJA-1fFO51e1FRlMbC-29" style="edgeStyle=orthogonalEdgeStyle;rounded=0;orthogonalLoop=1;jettySize=auto;html=1;exitX=0;exitY=0;exitDx=0;exitDy=0;entryX=1;entryY=1;entryDx=0;entryDy=0;curved=1;" parent="1" source="tazJA-1fFO51e1FRlMbC-5" target="tazJA-1fFO51e1FRlMbC-1" edge="1">
          <mxGeometry relative="1" as="geometry">
            <Array as="points">
              <mxPoint x="583" y="207" />
            </Array>
          </mxGeometry>
        </mxCell>
        <mxCell id="tazJA-1fFO51e1FRlMbC-43" style="edgeStyle=orthogonalEdgeStyle;rounded=0;orthogonalLoop=1;jettySize=auto;html=1;exitX=0;exitY=1;exitDx=0;exitDy=0;entryX=1;entryY=0;entryDx=0;entryDy=0;curved=1;" parent="1" source="tazJA-1fFO51e1FRlMbC-5" target="tazJA-1fFO51e1FRlMbC-7" edge="1">
          <mxGeometry relative="1" as="geometry" />
        </mxCell>
        <mxCell id="tazJA-1fFO51e1FRlMbC-50" style="edgeStyle=orthogonalEdgeStyle;rounded=0;orthogonalLoop=1;jettySize=auto;html=1;exitX=0.5;exitY=1;exitDx=0;exitDy=0;entryX=0.5;entryY=0;entryDx=0;entryDy=0;" parent="1" source="tazJA-1fFO51e1FRlMbC-5" target="tazJA-1fFO51e1FRlMbC-8" edge="1">
          <mxGeometry relative="1" as="geometry" />
        </mxCell>
        <mxCell id="tazJA-1fFO51e1FRlMbC-90" style="edgeStyle=orthogonalEdgeStyle;rounded=0;orthogonalLoop=1;jettySize=auto;html=1;exitX=1;exitY=1;exitDx=0;exitDy=0;entryX=0;entryY=1;entryDx=0;entryDy=0;curved=1;" parent="1" source="tazJA-1fFO51e1FRlMbC-5" target="tazJA-1fFO51e1FRlMbC-83" edge="1">
          <mxGeometry relative="1" as="geometry">
            <Array as="points">
              <mxPoint x="647" y="440" />
              <mxPoint x="803" y="440" />
            </Array>
          </mxGeometry>
        </mxCell>
        <mxCell id="tazJA-1fFO51e1FRlMbC-5" value="MIDI CLK MODE PENDING" style="ellipse;whiteSpace=wrap;html=1;aspect=fixed;" parent="1" vertex="1">
          <mxGeometry x="570" y="350" width="90" height="90" as="geometry" />
        </mxCell>
        <mxCell id="tazJA-1fFO51e1FRlMbC-36" style="edgeStyle=orthogonalEdgeStyle;rounded=0;orthogonalLoop=1;jettySize=auto;html=1;exitX=1;exitY=0;exitDx=0;exitDy=0;entryX=0;entryY=1;entryDx=0;entryDy=0;curved=1;" parent="1" source="tazJA-1fFO51e1FRlMbC-6" target="tazJA-1fFO51e1FRlMbC-4" edge="1">
          <mxGeometry relative="1" as="geometry" />
        </mxCell>
        <mxCell id="tazJA-1fFO51e1FRlMbC-102" style="edgeStyle=orthogonalEdgeStyle;rounded=0;orthogonalLoop=1;jettySize=auto;html=1;exitX=0.5;exitY=1;exitDx=0;exitDy=0;entryX=0;entryY=0;entryDx=0;entryDy=0;curved=1;" parent="1" source="tazJA-1fFO51e1FRlMbC-6" target="tazJA-1fFO51e1FRlMbC-1" edge="1">
          <mxGeometry relative="1" as="geometry">
            <Array as="points">
              <mxPoint x="195" y="670" />
              <mxPoint x="-130" y="670" />
              <mxPoint x="-130" y="65" />
              <mxPoint x="373" y="65" />
            </Array>
          </mxGeometry>
        </mxCell>
        <mxCell id="m08XYHI6pesTjwAB6Csi-29" style="edgeStyle=orthogonalEdgeStyle;rounded=0;orthogonalLoop=1;jettySize=auto;html=1;exitX=0;exitY=0;exitDx=0;exitDy=0;entryX=1;entryY=0.5;entryDx=0;entryDy=0;curved=1;" edge="1" parent="1" source="tazJA-1fFO51e1FRlMbC-6" target="tazJA-1fFO51e1FRlMbC-84">
          <mxGeometry relative="1" as="geometry" />
        </mxCell>
        <mxCell id="tazJA-1fFO51e1FRlMbC-6" value="TAP TEMPO MODE" style="ellipse;whiteSpace=wrap;html=1;aspect=fixed;" parent="1" vertex="1">
          <mxGeometry x="150" y="560" width="90" height="90" as="geometry" />
        </mxCell>
        <mxCell id="tazJA-1fFO51e1FRlMbC-42" style="edgeStyle=orthogonalEdgeStyle;rounded=0;orthogonalLoop=1;jettySize=auto;html=1;exitX=1;exitY=0;exitDx=0;exitDy=0;entryX=0;entryY=1;entryDx=0;entryDy=0;curved=1;" parent="1" source="tazJA-1fFO51e1FRlMbC-7" target="tazJA-1fFO51e1FRlMbC-5" edge="1">
          <mxGeometry relative="1" as="geometry" />
        </mxCell>
        <mxCell id="tazJA-1fFO51e1FRlMbC-46" style="edgeStyle=orthogonalEdgeStyle;rounded=0;orthogonalLoop=1;jettySize=auto;html=1;exitX=0;exitY=0;exitDx=0;exitDy=0;entryX=1;entryY=1;entryDx=0;entryDy=0;curved=1;" parent="1" source="tazJA-1fFO51e1FRlMbC-7" target="tazJA-1fFO51e1FRlMbC-3" edge="1">
          <mxGeometry relative="1" as="geometry" />
        </mxCell>
        <mxCell id="tazJA-1fFO51e1FRlMbC-87" style="edgeStyle=orthogonalEdgeStyle;rounded=0;orthogonalLoop=1;jettySize=auto;html=1;exitX=0.5;exitY=1;exitDx=0;exitDy=0;entryX=0.5;entryY=1;entryDx=0;entryDy=0;curved=1;" parent="1" source="tazJA-1fFO51e1FRlMbC-7" target="tazJA-1fFO51e1FRlMbC-83" edge="1">
          <mxGeometry relative="1" as="geometry" />
        </mxCell>
        <mxCell id="tazJA-1fFO51e1FRlMbC-101" style="edgeStyle=orthogonalEdgeStyle;rounded=0;orthogonalLoop=1;jettySize=auto;html=1;exitX=0.5;exitY=1;exitDx=0;exitDy=0;entryX=0.5;entryY=0;entryDx=0;entryDy=0;curved=1;" parent="1" source="tazJA-1fFO51e1FRlMbC-7" target="tazJA-1fFO51e1FRlMbC-1" edge="1">
          <mxGeometry relative="1" as="geometry">
            <Array as="points">
              <mxPoint x="405" y="820" />
              <mxPoint x="1095" y="820" />
              <mxPoint x="1095" y="5" />
              <mxPoint x="405" y="5" />
            </Array>
          </mxGeometry>
        </mxCell>
        <mxCell id="m08XYHI6pesTjwAB6Csi-37" style="edgeStyle=orthogonalEdgeStyle;rounded=0;orthogonalLoop=1;jettySize=auto;html=1;exitX=0;exitY=1;exitDx=0;exitDy=0;entryX=1;entryY=1;entryDx=0;entryDy=0;curved=1;" edge="1" parent="1" source="tazJA-1fFO51e1FRlMbC-7" target="tazJA-1fFO51e1FRlMbC-84">
          <mxGeometry relative="1" as="geometry">
            <Array as="points">
              <mxPoint x="373" y="710" />
              <mxPoint x="80" y="710" />
              <mxPoint x="80" y="427" />
            </Array>
          </mxGeometry>
        </mxCell>
        <mxCell id="tazJA-1fFO51e1FRlMbC-7" value="CLK MODE" style="ellipse;whiteSpace=wrap;html=1;aspect=fixed;" parent="1" vertex="1">
          <mxGeometry x="360" y="560" width="90" height="90" as="geometry" />
        </mxCell>
        <mxCell id="tazJA-1fFO51e1FRlMbC-44" style="edgeStyle=orthogonalEdgeStyle;rounded=0;orthogonalLoop=1;jettySize=auto;html=1;exitX=0;exitY=0;exitDx=0;exitDy=0;entryX=1;entryY=1;entryDx=0;entryDy=0;curved=1;" parent="1" source="tazJA-1fFO51e1FRlMbC-8" target="tazJA-1fFO51e1FRlMbC-4" edge="1">
          <mxGeometry relative="1" as="geometry" />
        </mxCell>
        <mxCell id="tazJA-1fFO51e1FRlMbC-85" style="edgeStyle=orthogonalEdgeStyle;rounded=0;orthogonalLoop=1;jettySize=auto;html=1;exitX=1;exitY=0;exitDx=0;exitDy=0;entryX=0;entryY=1;entryDx=0;entryDy=0;curved=1;" parent="1" source="tazJA-1fFO51e1FRlMbC-8" target="tazJA-1fFO51e1FRlMbC-83" edge="1">
          <mxGeometry relative="1" as="geometry" />
        </mxCell>
        <mxCell id="tazJA-1fFO51e1FRlMbC-100" style="edgeStyle=orthogonalEdgeStyle;rounded=0;orthogonalLoop=1;jettySize=auto;html=1;exitX=0.5;exitY=1;exitDx=0;exitDy=0;entryX=1;entryY=0;entryDx=0;entryDy=0;curved=1;" parent="1" source="tazJA-1fFO51e1FRlMbC-8" target="tazJA-1fFO51e1FRlMbC-1" edge="1">
          <mxGeometry relative="1" as="geometry">
            <Array as="points">
              <mxPoint x="615" y="735" />
              <mxPoint x="1030" y="735" />
              <mxPoint x="1030" y="55" />
              <mxPoint x="437" y="55" />
            </Array>
          </mxGeometry>
        </mxCell>
        <mxCell id="tazJA-1fFO51e1FRlMbC-8" value="MIDI CLK MODE" style="ellipse;whiteSpace=wrap;html=1;aspect=fixed;" parent="1" vertex="1">
          <mxGeometry x="570" y="560" width="90" height="90" as="geometry" />
        </mxCell>
        <mxCell id="tazJA-1fFO51e1FRlMbC-11" value="Startup" style="text;html=1;align=center;verticalAlign=middle;resizable=0;points=[];autosize=1;strokeColor=none;fillColor=none;fontSize=8;" parent="1" vertex="1">
          <mxGeometry x="295" y="160" width="50" height="20" as="geometry" />
        </mxCell>
        <mxCell id="tazJA-1fFO51e1FRlMbC-12" value="SPEED POT FINITE STATE MACHINE" style="text;html=1;align=center;verticalAlign=middle;resizable=0;points=[];autosize=1;strokeColor=none;fillColor=none;fontStyle=1;fontSize=20;" parent="1" vertex="1">
          <mxGeometry x="-256.5" y="-120" width="370" height="40" as="geometry" />
        </mxCell>
        <mxCell id="tazJA-1fFO51e1FRlMbC-30" value="Tap tempo depressed&lt;div&gt;(first IP CAP)&lt;/div&gt;" style="text;html=1;align=center;verticalAlign=middle;resizable=0;points=[];autosize=1;strokeColor=none;fillColor=none;fontSize=8;" parent="1" vertex="1">
          <mxGeometry x="195" y="210" width="100" height="30" as="geometry" />
        </mxCell>
        <mxCell id="tazJA-1fFO51e1FRlMbC-31" value="&lt;div&gt;prev state = MANUAL&lt;/div&gt;IP CAP timeout" style="text;html=1;align=center;verticalAlign=middle;resizable=0;points=[];autosize=1;strokeColor=none;fillColor=none;fontSize=8;" parent="1" vertex="1">
          <mxGeometry x="275" y="252.5" width="100" height="30" as="geometry" />
        </mxCell>
        <mxCell id="tazJA-1fFO51e1FRlMbC-32" value="CLK IN interrupt (first IP CAP)" style="text;html=1;align=center;verticalAlign=middle;resizable=0;points=[];autosize=1;strokeColor=none;fillColor=none;fontSize=8;rotation=-90;" parent="1" vertex="1">
          <mxGeometry x="315" y="280" width="130" height="20" as="geometry" />
        </mxCell>
        <mxCell id="tazJA-1fFO51e1FRlMbC-33" value="IP CAP timeout&lt;div&gt;prev state = MANUAL&lt;/div&gt;" style="text;html=1;align=center;verticalAlign=middle;resizable=0;points=[];autosize=1;strokeColor=none;fillColor=none;fontSize=8;rotation=-90;" parent="1" vertex="1">
          <mxGeometry x="380" y="273" width="100" height="35" as="geometry" />
        </mxCell>
        <mxCell id="tazJA-1fFO51e1FRlMbC-34" value="MIDI CLK status&lt;div&gt;byte received (first IP CAP)&lt;/div&gt;" style="text;html=1;align=center;verticalAlign=middle;resizable=0;points=[];autosize=1;strokeColor=none;fillColor=none;fontSize=8;" parent="1" vertex="1">
          <mxGeometry x="450" y="280" width="120" height="30" as="geometry" />
        </mxCell>
        <mxCell id="tazJA-1fFO51e1FRlMbC-35" value="&lt;div&gt;prev state = MANUAL&lt;/div&gt;IP CAP timeout" style="text;html=1;align=center;verticalAlign=middle;resizable=0;points=[];autosize=1;strokeColor=none;fillColor=none;fontSize=8;" parent="1" vertex="1">
          <mxGeometry x="545" y="225" width="100" height="30" as="geometry" />
        </mxCell>
        <mxCell id="tazJA-1fFO51e1FRlMbC-51" value="Tap tempo depressed&lt;div&gt;(second IP CAP)&lt;/div&gt;" style="text;html=1;align=center;verticalAlign=middle;resizable=0;points=[];autosize=1;strokeColor=none;fillColor=none;fontSize=8;rotation=-90;" parent="1" vertex="1">
          <mxGeometry x="130" y="480" width="100" height="30" as="geometry" />
        </mxCell>
        <mxCell id="tazJA-1fFO51e1FRlMbC-52" value="CLK IN interrupt&lt;br&gt;&lt;div&gt;(second IP CAP)&lt;/div&gt;" style="text;html=1;align=center;verticalAlign=middle;resizable=0;points=[];autosize=1;strokeColor=none;fillColor=none;fontSize=8;rotation=-90;" parent="1" vertex="1">
          <mxGeometry x="355" y="480" width="80" height="30" as="geometry" />
        </mxCell>
        <mxCell id="tazJA-1fFO51e1FRlMbC-53" value="MIDI CLK interrupt&lt;br&gt;&lt;div&gt;(second IP CAP)&lt;/div&gt;" style="text;html=1;align=center;verticalAlign=middle;resizable=0;points=[];autosize=1;strokeColor=none;fillColor=none;fontSize=8;rotation=-90;" parent="1" vertex="1">
          <mxGeometry x="585" y="480" width="90" height="30" as="geometry" />
        </mxCell>
        <mxCell id="tazJA-1fFO51e1FRlMbC-54" value="IP CAP timeout&lt;div&gt;+ TAP tempo&lt;/div&gt;&lt;div&gt;depressed&lt;/div&gt;" style="text;html=1;align=center;verticalAlign=middle;resizable=0;points=[];autosize=1;strokeColor=none;fillColor=none;fontSize=8;" parent="1" vertex="1">
          <mxGeometry x="240" y="500" width="80" height="40" as="geometry" />
        </mxCell>
        <mxCell id="tazJA-1fFO51e1FRlMbC-55" value="&lt;div&gt;prev state = CLK&lt;/div&gt;IP CAP timeout" style="text;html=1;align=center;verticalAlign=middle;resizable=0;points=[];autosize=1;strokeColor=none;fillColor=none;fontSize=8;" parent="1" vertex="1">
          <mxGeometry x="270" y="460" width="80" height="30" as="geometry" />
        </mxCell>
        <mxCell id="tazJA-1fFO51e1FRlMbC-57" value="&lt;div&gt;prev state = TAP&lt;/div&gt;+ IP CAP timeout" style="text;html=1;align=center;verticalAlign=middle;resizable=0;points=[];autosize=1;strokeColor=none;fillColor=none;fontSize=8;" parent="1" vertex="1">
          <mxGeometry x="280" y="400" width="80" height="30" as="geometry" />
        </mxCell>
        <mxCell id="tazJA-1fFO51e1FRlMbC-58" value="IP CAP timeout +&lt;div&gt;CLK IN interrupt&lt;/div&gt;" style="text;html=1;align=center;verticalAlign=middle;resizable=0;points=[];autosize=1;strokeColor=none;fillColor=none;fontSize=8;" parent="1" vertex="1">
          <mxGeometry x="235" y="569" width="80" height="30" as="geometry" />
        </mxCell>
        <mxCell id="tazJA-1fFO51e1FRlMbC-59" value="IP CAP timeout&lt;div&gt;+ CLK IN interrupt&lt;/div&gt;" style="text;html=1;align=center;verticalAlign=middle;resizable=0;points=[];autosize=1;strokeColor=none;fillColor=none;fontSize=8;" parent="1" vertex="1">
          <mxGeometry x="455" y="505" width="90" height="30" as="geometry" />
        </mxCell>
        <mxCell id="tazJA-1fFO51e1FRlMbC-60" value="&lt;div&gt;prev state = MIDI&lt;/div&gt;IP CAP timeout" style="text;html=1;align=center;verticalAlign=middle;resizable=0;points=[];autosize=1;strokeColor=none;fillColor=none;fontSize=8;" parent="1" vertex="1">
          <mxGeometry x="480" y="460" width="80" height="30" as="geometry" />
        </mxCell>
        <mxCell id="tazJA-1fFO51e1FRlMbC-61" value="&lt;div&gt;prev state = CLK&lt;/div&gt;+ IP CAP timeout" style="text;html=1;align=center;verticalAlign=middle;resizable=0;points=[];autosize=1;strokeColor=none;fillColor=none;fontSize=8;" parent="1" vertex="1">
          <mxGeometry x="490" y="400" width="80" height="30" as="geometry" />
        </mxCell>
        <mxCell id="tazJA-1fFO51e1FRlMbC-62" value="IP CAP timeout +&lt;div&gt;MIDI CLK IN interrupt&lt;/div&gt;" style="text;html=1;align=center;verticalAlign=middle;resizable=0;points=[];autosize=1;strokeColor=none;fillColor=none;fontSize=8;" parent="1" vertex="1">
          <mxGeometry x="440" y="569" width="100" height="30" as="geometry" />
        </mxCell>
        <mxCell id="tazJA-1fFO51e1FRlMbC-68" style="edgeStyle=orthogonalEdgeStyle;rounded=0;orthogonalLoop=1;jettySize=auto;html=1;exitX=1;exitY=0.5;exitDx=0;exitDy=0;curved=1;entryX=1;entryY=0.5;entryDx=0;entryDy=0;" parent="1" edge="1">
          <mxGeometry relative="1" as="geometry">
            <mxPoint x="450" y="395" as="targetPoint" />
            <mxPoint x="450" y="395" as="sourcePoint" />
            <Array as="points">
              <mxPoint x="490" y="395" />
              <mxPoint x="490" y="370" />
              <mxPoint x="470" y="370" />
              <mxPoint x="470" y="395" />
            </Array>
          </mxGeometry>
        </mxCell>
        <mxCell id="tazJA-1fFO51e1FRlMbC-70" style="edgeStyle=orthogonalEdgeStyle;rounded=0;orthogonalLoop=1;jettySize=auto;html=1;exitX=1;exitY=0.5;exitDx=0;exitDy=0;curved=1;entryX=1;entryY=0.5;entryDx=0;entryDy=0;" parent="1" edge="1">
          <mxGeometry relative="1" as="geometry">
            <mxPoint x="660" y="394.97" as="targetPoint" />
            <mxPoint x="660" y="394.97" as="sourcePoint" />
            <Array as="points">
              <mxPoint x="700" y="394.97" />
              <mxPoint x="700" y="369.97" />
              <mxPoint x="680" y="369.97" />
              <mxPoint x="680" y="394.97" />
            </Array>
          </mxGeometry>
        </mxCell>
        <mxCell id="tazJA-1fFO51e1FRlMbC-72" value="Any interrupt&lt;div&gt;/command&lt;/div&gt;" style="text;html=1;align=center;verticalAlign=middle;resizable=0;points=[];autosize=1;strokeColor=none;fillColor=none;fontSize=8;" parent="1" vertex="1">
          <mxGeometry x="273" y="363" width="65" height="35" as="geometry" />
        </mxCell>
        <mxCell id="tazJA-1fFO51e1FRlMbC-75" style="edgeStyle=orthogonalEdgeStyle;rounded=0;orthogonalLoop=1;jettySize=auto;html=1;exitX=1;exitY=0.5;exitDx=0;exitDy=0;curved=1;entryX=1;entryY=0.5;entryDx=0;entryDy=0;" parent="1" edge="1">
          <mxGeometry relative="1" as="geometry">
            <mxPoint x="235" y="629" as="targetPoint" />
            <mxPoint x="235" y="629" as="sourcePoint" />
            <Array as="points">
              <mxPoint x="275" y="629" />
              <mxPoint x="275" y="604" />
              <mxPoint x="255" y="604" />
              <mxPoint x="255" y="629" />
            </Array>
          </mxGeometry>
        </mxCell>
        <mxCell id="tazJA-1fFO51e1FRlMbC-78" style="edgeStyle=orthogonalEdgeStyle;rounded=0;orthogonalLoop=1;jettySize=auto;html=1;exitX=1;exitY=0.5;exitDx=0;exitDy=0;curved=1;entryX=1;entryY=0.5;entryDx=0;entryDy=0;" parent="1" edge="1">
          <mxGeometry relative="1" as="geometry">
            <mxPoint x="445" y="629" as="targetPoint" />
            <mxPoint x="445" y="629" as="sourcePoint" />
            <Array as="points">
              <mxPoint x="485" y="629" />
              <mxPoint x="485" y="604" />
              <mxPoint x="465" y="604" />
              <mxPoint x="465" y="629" />
            </Array>
          </mxGeometry>
        </mxCell>
        <mxCell id="tazJA-1fFO51e1FRlMbC-80" style="edgeStyle=orthogonalEdgeStyle;rounded=0;orthogonalLoop=1;jettySize=auto;html=1;exitX=1;exitY=0.5;exitDx=0;exitDy=0;curved=1;entryX=1;entryY=0.5;entryDx=0;entryDy=0;" parent="1" edge="1">
          <mxGeometry relative="1" as="geometry">
            <mxPoint x="650" y="634" as="targetPoint" />
            <mxPoint x="650" y="634" as="sourcePoint" />
            <Array as="points">
              <mxPoint x="690" y="634" />
              <mxPoint x="690" y="609" />
              <mxPoint x="670" y="609" />
              <mxPoint x="670" y="634" />
            </Array>
          </mxGeometry>
        </mxCell>
        <mxCell id="tazJA-1fFO51e1FRlMbC-89" style="edgeStyle=orthogonalEdgeStyle;rounded=0;orthogonalLoop=1;jettySize=auto;html=1;exitX=0;exitY=1;exitDx=0;exitDy=0;entryX=1;entryY=1;entryDx=0;entryDy=0;curved=1;" parent="1" source="tazJA-1fFO51e1FRlMbC-83" target="tazJA-1fFO51e1FRlMbC-5" edge="1">
          <mxGeometry relative="1" as="geometry">
            <Array as="points">
              <mxPoint x="803" y="410" />
              <mxPoint x="647" y="410" />
            </Array>
          </mxGeometry>
        </mxCell>
        <mxCell id="tazJA-1fFO51e1FRlMbC-91" style="edgeStyle=orthogonalEdgeStyle;rounded=0;orthogonalLoop=1;jettySize=auto;html=1;exitX=0.989;exitY=0.678;exitDx=0;exitDy=0;entryX=0;entryY=1;entryDx=0;entryDy=0;curved=1;exitPerimeter=0;" parent="1" edge="1">
          <mxGeometry relative="1" as="geometry">
            <Array as="points">
              <mxPoint x="895" y="410" />
              <mxPoint x="895" y="829" />
              <mxPoint x="-37" y="829" />
            </Array>
            <mxPoint x="879.0100000000002" y="409.52" as="sourcePoint" />
            <mxPoint x="-36.81980515339478" y="425.31980515339455" as="targetPoint" />
          </mxGeometry>
        </mxCell>
        <mxCell id="tazJA-1fFO51e1FRlMbC-93" style="edgeStyle=orthogonalEdgeStyle;rounded=0;orthogonalLoop=1;jettySize=auto;html=1;entryX=1;entryY=0;entryDx=0;entryDy=0;curved=1;exitX=0.199;exitY=0.093;exitDx=0;exitDy=0;exitPerimeter=0;" parent="1" source="tazJA-1fFO51e1FRlMbC-83" target="tazJA-1fFO51e1FRlMbC-4" edge="1">
          <mxGeometry relative="1" as="geometry">
            <Array as="points">
              <mxPoint x="808" y="330" />
              <mxPoint x="437" y="330" />
            </Array>
          </mxGeometry>
        </mxCell>
        <mxCell id="tazJA-1fFO51e1FRlMbC-95" style="edgeStyle=orthogonalEdgeStyle;rounded=0;orthogonalLoop=1;jettySize=auto;html=1;exitX=0.722;exitY=0.03;exitDx=0;exitDy=0;entryX=0.5;entryY=0;entryDx=0;entryDy=0;curved=1;exitPerimeter=0;" parent="1" source="tazJA-1fFO51e1FRlMbC-83" target="tazJA-1fFO51e1FRlMbC-3" edge="1">
          <mxGeometry relative="1" as="geometry">
            <Array as="points">
              <mxPoint x="865" y="353" />
              <mxPoint x="865" y="80" />
              <mxPoint x="130" y="80" />
              <mxPoint x="130" y="350" />
            </Array>
          </mxGeometry>
        </mxCell>
        <mxCell id="tazJA-1fFO51e1FRlMbC-98" style="edgeStyle=orthogonalEdgeStyle;rounded=0;orthogonalLoop=1;jettySize=auto;html=1;exitX=0.404;exitY=-0.004;exitDx=0;exitDy=0;entryX=1;entryY=0.5;entryDx=0;entryDy=0;curved=1;exitPerimeter=0;" parent="1" source="tazJA-1fFO51e1FRlMbC-83" target="tazJA-1fFO51e1FRlMbC-1" edge="1">
          <mxGeometry relative="1" as="geometry" />
        </mxCell>
        <mxCell id="tazJA-1fFO51e1FRlMbC-103" style="edgeStyle=orthogonalEdgeStyle;rounded=0;orthogonalLoop=1;jettySize=auto;html=1;exitX=1;exitY=0.5;exitDx=0;exitDy=0;entryX=0;entryY=1;entryDx=0;entryDy=0;curved=1;" parent="1" source="tazJA-1fFO51e1FRlMbC-83" target="tazJA-1fFO51e1FRlMbC-3" edge="1">
          <mxGeometry relative="1" as="geometry">
            <Array as="points">
              <mxPoint x="915" y="395" />
              <mxPoint x="915" y="900" />
              <mxPoint x="105" y="900" />
              <mxPoint x="105" y="427" />
            </Array>
          </mxGeometry>
        </mxCell>
        <mxCell id="tazJA-1fFO51e1FRlMbC-83" value="CC MODE" style="ellipse;whiteSpace=wrap;html=1;aspect=fixed;" parent="1" vertex="1">
          <mxGeometry x="790" y="350" width="90" height="90" as="geometry" />
        </mxCell>
        <mxCell id="tazJA-1fFO51e1FRlMbC-92" style="edgeStyle=orthogonalEdgeStyle;rounded=0;orthogonalLoop=1;jettySize=auto;html=1;exitX=0.338;exitY=0.963;exitDx=0;exitDy=0;entryX=1;entryY=1;entryDx=0;entryDy=0;curved=1;exitPerimeter=0;" parent="1" source="tazJA-1fFO51e1FRlMbC-84" target="tazJA-1fFO51e1FRlMbC-83" edge="1">
          <mxGeometry relative="1" as="geometry">
            <Array as="points">
              <mxPoint x="-20" y="805" />
              <mxPoint x="867" y="805" />
            </Array>
          </mxGeometry>
        </mxCell>
        <mxCell id="m08XYHI6pesTjwAB6Csi-33" style="edgeStyle=orthogonalEdgeStyle;rounded=0;orthogonalLoop=1;jettySize=auto;html=1;exitX=1;exitY=0;exitDx=0;exitDy=0;entryX=0;entryY=0;entryDx=0;entryDy=0;" edge="1" parent="1" source="tazJA-1fFO51e1FRlMbC-84" target="tazJA-1fFO51e1FRlMbC-3">
          <mxGeometry relative="1" as="geometry" />
        </mxCell>
        <mxCell id="m08XYHI6pesTjwAB6Csi-46" style="edgeStyle=orthogonalEdgeStyle;rounded=0;orthogonalLoop=1;jettySize=auto;html=1;exitX=0.344;exitY=-0.011;exitDx=0;exitDy=0;entryX=0.5;entryY=0;entryDx=0;entryDy=0;curved=1;exitPerimeter=0;" edge="1" parent="1" source="tazJA-1fFO51e1FRlMbC-84" target="tazJA-1fFO51e1FRlMbC-5">
          <mxGeometry relative="1" as="geometry">
            <Array as="points">
              <mxPoint x="-45" y="349" />
              <mxPoint x="-45" y="-10" />
              <mxPoint x="755" y="-10" />
              <mxPoint x="755" y="260" />
              <mxPoint x="615" y="260" />
            </Array>
          </mxGeometry>
        </mxCell>
        <mxCell id="tazJA-1fFO51e1FRlMbC-84" value="PC MODE" style="ellipse;whiteSpace=wrap;html=1;aspect=fixed;" parent="1" vertex="1">
          <mxGeometry x="-50" y="350" width="90" height="90" as="geometry" />
        </mxCell>
        <mxCell id="tazJA-1fFO51e1FRlMbC-97" style="edgeStyle=orthogonalEdgeStyle;rounded=0;orthogonalLoop=1;jettySize=auto;html=1;exitX=0.653;exitY=-0.012;exitDx=0;exitDy=0;entryX=0.695;entryY=0.01;entryDx=0;entryDy=0;entryPerimeter=0;curved=1;exitPerimeter=0;" parent="1" source="tazJA-1fFO51e1FRlMbC-3" target="tazJA-1fFO51e1FRlMbC-83" edge="1">
          <mxGeometry relative="1" as="geometry">
            <Array as="points">
              <mxPoint x="185" y="349" />
              <mxPoint x="185" y="90" />
              <mxPoint x="853" y="90" />
            </Array>
          </mxGeometry>
        </mxCell>
        <mxCell id="tazJA-1fFO51e1FRlMbC-105" style="edgeStyle=orthogonalEdgeStyle;rounded=0;orthogonalLoop=1;jettySize=auto;html=1;exitX=0.676;exitY=-0.005;exitDx=0;exitDy=0;entryX=0.031;entryY=0.252;entryDx=0;entryDy=0;entryPerimeter=0;curved=1;exitPerimeter=0;" parent="1" source="tazJA-1fFO51e1FRlMbC-84" target="tazJA-1fFO51e1FRlMbC-1" edge="1">
          <mxGeometry relative="1" as="geometry">
            <Array as="points">
              <mxPoint x="11" y="153" />
            </Array>
          </mxGeometry>
        </mxCell>
        <mxCell id="tazJA-1fFO51e1FRlMbC-106" style="edgeStyle=orthogonalEdgeStyle;rounded=0;orthogonalLoop=1;jettySize=auto;html=1;exitX=0.5;exitY=0;exitDx=0;exitDy=0;entryX=0.056;entryY=0.222;entryDx=0;entryDy=0;entryPerimeter=0;curved=1;startArrow=classic;startFill=1;endArrow=none;" parent="1" source="tazJA-1fFO51e1FRlMbC-84" target="tazJA-1fFO51e1FRlMbC-1" edge="1">
          <mxGeometry relative="1" as="geometry">
            <Array as="points">
              <mxPoint x="-5" y="145" />
              <mxPoint x="365" y="145" />
            </Array>
          </mxGeometry>
        </mxCell>
        <mxCell id="m08XYHI6pesTjwAB6Csi-2" value="&lt;div&gt;prev state = CC MODE&lt;/div&gt;IP CAP timeout" style="text;html=1;align=center;verticalAlign=middle;resizable=0;points=[];autosize=1;strokeColor=none;fillColor=none;fontSize=8;" vertex="1" parent="1">
          <mxGeometry x="673" y="433" width="105" height="35" as="geometry" />
        </mxCell>
        <mxCell id="m08XYHI6pesTjwAB6Csi-3" value="&lt;div&gt;MIDI CLK interrupt&lt;/div&gt;" style="text;html=1;align=center;verticalAlign=middle;resizable=0;points=[];autosize=1;strokeColor=none;fillColor=none;fontSize=8;" vertex="1" parent="1">
          <mxGeometry x="682.5" y="405" width="85" height="25" as="geometry" />
        </mxCell>
        <mxCell id="m08XYHI6pesTjwAB6Csi-4" value="&lt;div&gt;CLK IN Interrupt&lt;/div&gt;" style="text;html=1;align=center;verticalAlign=middle;resizable=0;points=[];autosize=1;strokeColor=none;fillColor=none;fontSize=8;" vertex="1" parent="1">
          <mxGeometry x="687.5" y="330" width="80" height="25" as="geometry" />
        </mxCell>
        <mxCell id="m08XYHI6pesTjwAB6Csi-5" value="&lt;div&gt;prev state = CC MODE, IP CAP timeout&lt;/div&gt;" style="text;html=1;align=center;verticalAlign=middle;resizable=0;points=[];autosize=1;strokeColor=none;fillColor=none;fontSize=8;" vertex="1" parent="1">
          <mxGeometry x="651" y="300" width="160" height="25" as="geometry" />
        </mxCell>
        <mxCell id="m08XYHI6pesTjwAB6Csi-6" value="&lt;div&gt;valid CC received&lt;/div&gt;" style="text;html=1;align=center;verticalAlign=middle;resizable=0;points=[];autosize=1;strokeColor=none;fillColor=none;fontSize=8;" vertex="1" parent="1">
          <mxGeometry x="548" y="140" width="85" height="25" as="geometry" />
        </mxCell>
        <mxCell id="m08XYHI6pesTjwAB6Csi-7" value="&lt;div&gt;pot is wiggled&lt;/div&gt;" style="text;html=1;align=center;verticalAlign=middle;resizable=0;points=[];autosize=1;strokeColor=none;fillColor=none;fontSize=8;" vertex="1" parent="1">
          <mxGeometry x="548" y="180" width="70" height="25" as="geometry" />
        </mxCell>
        <mxCell id="m08XYHI6pesTjwAB6Csi-8" value="&lt;div&gt;TAP tempo depressed&lt;/div&gt;" style="text;html=1;align=center;verticalAlign=middle;resizable=0;points=[];autosize=1;strokeColor=none;fillColor=none;fontSize=8;" vertex="1" parent="1">
          <mxGeometry x="40.5" y="245" width="100" height="25" as="geometry" />
        </mxCell>
        <mxCell id="m08XYHI6pesTjwAB6Csi-9" value="IP CAP timeout&lt;div&gt;prev state: CC MODE&lt;/div&gt;" style="text;html=1;align=center;verticalAlign=middle;resizable=0;points=[];autosize=1;strokeColor=none;fillColor=none;fontSize=8;" vertex="1" parent="1">
          <mxGeometry x="618" y="110" width="100" height="35" as="geometry" />
        </mxCell>
        <mxCell id="m08XYHI6pesTjwAB6Csi-11" value="&lt;div&gt;pot is wiggled&lt;/div&gt;" style="text;html=1;align=center;verticalAlign=middle;resizable=0;points=[];autosize=1;strokeColor=none;fillColor=none;fontSize=8;" vertex="1" parent="1">
          <mxGeometry x="575" y="700" width="70" height="25" as="geometry" />
        </mxCell>
        <mxCell id="m08XYHI6pesTjwAB6Csi-12" value="&lt;div&gt;pot is wiggled&lt;/div&gt;" style="text;html=1;align=center;verticalAlign=middle;resizable=0;points=[];autosize=1;strokeColor=none;fillColor=none;fontSize=8;" vertex="1" parent="1">
          <mxGeometry x="414" y="685" width="70" height="25" as="geometry" />
        </mxCell>
        <mxCell id="m08XYHI6pesTjwAB6Csi-13" value="&lt;div&gt;pot is wiggled&lt;/div&gt;" style="text;html=1;align=center;verticalAlign=middle;resizable=0;points=[];autosize=1;strokeColor=none;fillColor=none;fontSize=8;" vertex="1" parent="1">
          <mxGeometry x="-85" y="660" width="70" height="25" as="geometry" />
        </mxCell>
        <mxCell id="m08XYHI6pesTjwAB6Csi-14" value="&lt;div&gt;&amp;nbsp;valid CC received&lt;/div&gt;" style="text;html=1;align=center;verticalAlign=middle;resizable=0;points=[];autosize=1;strokeColor=none;fillColor=none;fontSize=8;" vertex="1" parent="1">
          <mxGeometry x="365" y="780" width="85" height="25" as="geometry" />
        </mxCell>
        <mxCell id="m08XYHI6pesTjwAB6Csi-17" value="&lt;div&gt;&amp;nbsp;valid PC received&lt;/div&gt;" style="text;html=1;align=center;verticalAlign=middle;resizable=0;points=[];autosize=1;strokeColor=none;fillColor=none;fontSize=8;" vertex="1" parent="1">
          <mxGeometry x="-114" y="435" width="85" height="25" as="geometry" />
        </mxCell>
        <mxCell id="m08XYHI6pesTjwAB6Csi-20" value="&lt;div&gt;&amp;nbsp;valid CC received&lt;/div&gt;" style="text;html=1;align=center;verticalAlign=middle;resizable=0;points=[];autosize=1;strokeColor=none;fillColor=none;fontSize=8;" vertex="1" parent="1">
          <mxGeometry x="685" y="515" width="85" height="25" as="geometry" />
        </mxCell>
        <mxCell id="m08XYHI6pesTjwAB6Csi-21" value="&lt;div&gt;&amp;nbsp;valid CC received&lt;/div&gt;" style="text;html=1;align=center;verticalAlign=middle;resizable=0;points=[];autosize=1;strokeColor=none;fillColor=none;fontSize=8;" vertex="1" parent="1">
          <mxGeometry x="487.5" y="645" width="85" height="25" as="geometry" />
        </mxCell>
        <mxCell id="m08XYHI6pesTjwAB6Csi-22" value="Any press/interrupt&lt;div&gt;/command&lt;/div&gt;" style="text;html=1;align=center;verticalAlign=middle;resizable=0;points=[];autosize=1;strokeColor=none;fillColor=none;fontSize=8;" vertex="1" parent="1">
          <mxGeometry x="480" y="363" width="90" height="35" as="geometry" />
        </mxCell>
        <mxCell id="m08XYHI6pesTjwAB6Csi-23" value="Any press/interrupt&lt;div&gt;/command&lt;/div&gt;" style="text;html=1;align=center;verticalAlign=middle;resizable=0;points=[];autosize=1;strokeColor=none;fillColor=none;fontSize=8;" vertex="1" parent="1">
          <mxGeometry x="690" y="363" width="90" height="35" as="geometry" />
        </mxCell>
        <mxCell id="m08XYHI6pesTjwAB6Csi-24" value="Any interrupt&lt;div&gt;/command&lt;/div&gt;&lt;div&gt;w/o timeout&lt;/div&gt;" style="text;html=1;align=center;verticalAlign=middle;resizable=0;points=[];autosize=1;strokeColor=none;fillColor=none;fontSize=8;" vertex="1" parent="1">
          <mxGeometry x="270" y="594" width="65" height="45" as="geometry" />
        </mxCell>
        <mxCell id="m08XYHI6pesTjwAB6Csi-25" value="Any press/interrupt&lt;div&gt;/command&lt;/div&gt;&lt;div&gt;w/o timeout&lt;/div&gt;" style="text;html=1;align=center;verticalAlign=middle;resizable=0;points=[];autosize=1;strokeColor=none;fillColor=none;fontSize=8;" vertex="1" parent="1">
          <mxGeometry x="475" y="594" width="90" height="45" as="geometry" />
        </mxCell>
        <mxCell id="m08XYHI6pesTjwAB6Csi-26" value="Any press/interrupt&lt;div&gt;/command&lt;/div&gt;&lt;div&gt;w/o timeout&lt;/div&gt;" style="text;html=1;align=center;verticalAlign=middle;resizable=0;points=[];autosize=1;strokeColor=none;fillColor=none;fontSize=8;" vertex="1" parent="1">
          <mxGeometry x="680" y="594" width="90" height="45" as="geometry" />
        </mxCell>
        <mxCell id="m08XYHI6pesTjwAB6Csi-27" value="TAP tempo depressed" style="text;html=1;align=center;verticalAlign=middle;resizable=0;points=[];autosize=1;strokeColor=none;fillColor=none;fontSize=8;" vertex="1" parent="1">
          <mxGeometry x="450" y="875" width="100" height="25" as="geometry" />
        </mxCell>
        <mxCell id="m08XYHI6pesTjwAB6Csi-28" value="prev state = CC&lt;div&gt;IP CAP timeout&lt;/div&gt;" style="text;html=1;align=center;verticalAlign=middle;resizable=0;points=[];autosize=1;strokeColor=none;fillColor=none;fontSize=8;" vertex="1" parent="1">
          <mxGeometry x="463" y="935" width="75" height="35" as="geometry" />
        </mxCell>
        <mxCell id="m08XYHI6pesTjwAB6Csi-31" value="&lt;div&gt;&amp;nbsp;valid PC received&lt;/div&gt;&lt;div&gt;+ IP CAP timeout&lt;/div&gt;" style="text;html=1;align=center;verticalAlign=middle;resizable=0;points=[];autosize=1;strokeColor=none;fillColor=none;fontSize=8;" vertex="1" parent="1">
          <mxGeometry x="105" y="530" width="85" height="35" as="geometry" />
        </mxCell>
        <mxCell id="m08XYHI6pesTjwAB6Csi-35" value="&lt;div&gt;TAP tempo depressed&lt;/div&gt;" style="text;html=1;align=center;verticalAlign=middle;resizable=0;points=[];autosize=1;strokeColor=none;fillColor=none;fontSize=8;" vertex="1" parent="1">
          <mxGeometry x="43" y="355" width="100" height="25" as="geometry" />
        </mxCell>
        <mxCell id="m08XYHI6pesTjwAB6Csi-36" value="IP CAP timeout&lt;div&gt;prev state = PC MODE&lt;/div&gt;" style="text;html=1;align=center;verticalAlign=middle;resizable=0;points=[];autosize=1;strokeColor=none;fillColor=none;fontSize=8;" vertex="1" parent="1">
          <mxGeometry x="38" y="315" width="105" height="35" as="geometry" />
        </mxCell>
        <mxCell id="m08XYHI6pesTjwAB6Csi-38" value="&lt;div&gt;&amp;nbsp;valid PC received + IP CAP timeout&lt;/div&gt;" style="text;html=1;align=center;verticalAlign=middle;resizable=0;points=[];autosize=1;strokeColor=none;fillColor=none;fontSize=8;" vertex="1" parent="1">
          <mxGeometry x="170.5" y="685" width="150" height="25" as="geometry" />
        </mxCell>
        <mxCell id="m08XYHI6pesTjwAB6Csi-39" style="edgeStyle=orthogonalEdgeStyle;rounded=0;orthogonalLoop=1;jettySize=auto;html=1;exitX=0;exitY=1;exitDx=0;exitDy=0;entryX=0.711;entryY=0.944;entryDx=0;entryDy=0;entryPerimeter=0;curved=1;" edge="1" parent="1" source="tazJA-1fFO51e1FRlMbC-8" target="tazJA-1fFO51e1FRlMbC-84">
          <mxGeometry relative="1" as="geometry">
            <Array as="points">
              <mxPoint x="583" y="755" />
              <mxPoint x="14" y="755" />
            </Array>
          </mxGeometry>
        </mxCell>
        <mxCell id="m08XYHI6pesTjwAB6Csi-40" value="&lt;div&gt;&amp;nbsp;valid PC received + IP CAP timeout&lt;/div&gt;" style="text;html=1;align=center;verticalAlign=middle;resizable=0;points=[];autosize=1;strokeColor=none;fillColor=none;fontSize=8;" vertex="1" parent="1">
          <mxGeometry x="273" y="730" width="150" height="25" as="geometry" />
        </mxCell>
        <mxCell id="m08XYHI6pesTjwAB6Csi-41" value="&lt;div&gt;&amp;nbsp;valid PC received&lt;/div&gt;" style="text;html=1;align=center;verticalAlign=middle;resizable=0;points=[];autosize=1;strokeColor=none;fillColor=none;fontSize=8;" vertex="1" parent="1">
          <mxGeometry x="-15" y="150" width="85" height="25" as="geometry" />
        </mxCell>
        <mxCell id="m08XYHI6pesTjwAB6Csi-42" value="&lt;div&gt;pot is wiggled&lt;/div&gt;" style="text;html=1;align=center;verticalAlign=middle;resizable=0;points=[];autosize=1;strokeColor=none;fillColor=none;fontSize=8;" vertex="1" parent="1">
          <mxGeometry x="50" y="175" width="70" height="25" as="geometry" />
        </mxCell>
        <mxCell id="m08XYHI6pesTjwAB6Csi-44" style="edgeStyle=orthogonalEdgeStyle;rounded=0;orthogonalLoop=1;jettySize=auto;html=1;exitX=0;exitY=0;exitDx=0;exitDy=0;entryX=0.733;entryY=0.022;entryDx=0;entryDy=0;entryPerimeter=0;curved=1;startArrow=classic;startFill=1;endArrow=none;" edge="1" parent="1" source="tazJA-1fFO51e1FRlMbC-4" target="tazJA-1fFO51e1FRlMbC-84">
          <mxGeometry relative="1" as="geometry">
            <Array as="points">
              <mxPoint x="373" y="295" />
              <mxPoint x="16" y="295" />
            </Array>
          </mxGeometry>
        </mxCell>
        <mxCell id="m08XYHI6pesTjwAB6Csi-45" value="&lt;div&gt;CLK IN interrupt&lt;/div&gt;" style="text;html=1;align=center;verticalAlign=middle;resizable=0;points=[];autosize=1;strokeColor=none;fillColor=none;fontSize=8;" vertex="1" parent="1">
          <mxGeometry x="40" y="277.5" width="80" height="25" as="geometry" />
        </mxCell>
        <mxCell id="m08XYHI6pesTjwAB6Csi-48" value="&lt;div&gt;MIDI CLK interrupt&lt;/div&gt;" style="text;html=1;align=center;verticalAlign=middle;resizable=0;points=[];autosize=1;strokeColor=none;fillColor=none;fontSize=8;" vertex="1" parent="1">
          <mxGeometry x="-110" y="325" width="85" height="25" as="geometry" />
        </mxCell>
      </root>
    </mxGraphModel>
  </diagram>
</mxfile>
